<svg width="100" height="100" viewBox="0 0 100 100" fill="none" xmlns="http://www.w3.org/2000/svg">
<path d="M83.4747 31.0399V23.0143C83.4747 22.5053 83.2756 22.0167 82.9198 21.6527C79.8167 18.4766 75.9069 16.906 71.2877 17.0043C63.647 17.1559 55.5902 21.9511 50.3654 27.0674C44.3697 21.0372 37.2131 17.4606 30.9048 17.4124C25.8925 17.3696 21.4775 19.3832 17.7564 23.3828C17.4209 23.7433 17.2344 24.2173 17.2344 24.7098V32.2708C14.691 33.876 12.6503 35.8336 11.299 37.9825C11.1037 38.2933 11 38.6529 11 39.0198V80.4932C11 81.3614 11.5746 82.1246 12.4085 82.365C13.2435 82.6066 14.1355 82.2651 14.5975 81.5301C17.7145 76.5726 24.7141 73.3693 32.4291 73.3693C39.1411 73.3693 45.3016 75.7557 48.908 79.7531C48.9181 79.7643 48.9311 79.7716 48.9415 79.7825C49.0215 79.8672 49.1094 79.943 49.2034 80.0123C49.2078 80.0154 49.2116 80.0197 49.2161 80.0228C49.5369 80.2552 49.9282 80.3961 50.3546 80.3961C50.781 80.3961 51.1722 80.2552 51.493 80.0228C51.4976 80.0197 51.5013 80.0154 51.5058 80.0123C51.5997 79.943 51.6877 79.8672 51.7676 79.7825C51.778 79.7716 51.7911 79.7643 51.8012 79.7531C55.4075 75.7557 61.5681 73.3693 68.2801 73.3693C75.995 73.3693 82.9946 76.5726 86.1117 81.5301C86.4748 82.1075 87.1036 82.4414 87.7609 82.4414C87.9404 82.4414 88.1218 82.4167 88.3006 82.365C89.1346 82.1246 89.7092 81.3614 89.7092 80.4932V39.0198C89.7092 36.6965 88.5858 33.5014 83.4747 31.0399ZM71.3651 20.8999C74.5849 20.8346 77.3478 21.8249 79.5782 23.8419V32.3212C79.5783 32.3231 79.5782 32.325 79.5782 32.3269V61.8739C75.9941 60.7127 72.1404 60.1061 68.2801 60.1061C62.5734 60.1061 57.0214 61.3979 52.3028 63.7866V30.6616C56.7739 25.9571 64.4372 21.0374 71.3651 20.8999ZM21.1309 25.4978C23.9604 22.6893 27.2477 21.2576 30.875 21.3089C36.4506 21.3514 42.9589 24.8382 48.4063 30.6581V63.7866C43.6878 61.3979 38.1357 60.1061 32.4291 60.1061C28.5688 60.1061 24.7151 60.7127 21.1309 61.8739V25.4978ZM32.4291 69.4728C25.6394 69.4728 19.262 71.6922 14.8965 75.3749V39.607C15.5173 38.7211 16.3064 37.8746 17.2344 37.0852V64.6729C17.2344 65.3255 17.5614 65.9346 18.1049 66.2958C18.6481 66.6567 19.3368 66.7217 19.9383 66.4686C23.7723 64.8552 28.0918 64.0026 32.4291 64.0026C38.2687 64.0026 43.898 65.5013 48.4063 68.2393V74.1731C44.1317 71.1848 38.4475 69.4728 32.4291 69.4728ZM85.8127 75.3749C81.4472 71.6922 75.0698 69.4728 68.2801 69.4728C62.2617 69.4728 56.5775 71.1848 52.3028 74.1731V68.2393C56.8112 65.5013 62.4404 64.0026 68.2801 64.0026C72.6173 64.0026 76.9368 64.8552 80.7708 66.4686C81.3727 66.7217 82.0608 66.6567 82.6043 66.2958C83.1478 65.9346 83.4747 65.3255 83.4747 64.6729V35.5125C84.791 36.4137 85.8127 37.5762 85.8127 39.0198V75.3749Z" fill="#31423F"/>
</svg>
