<svg width="100" height="100" viewBox="0 0 100 100" fill="none" xmlns="http://www.w3.org/2000/svg">
<path d="M50.3543 11C28.6544 11 11 28.6544 11 50.3546C11 72.0548 28.6544 89.7092 50.3543 89.7092C72.0545 89.7092 89.7088 72.0548 89.7088 50.3546C89.7088 28.6544 72.0545 11 50.3543 11ZM50.3543 85.8124C46.2904 85.8124 41.9486 80.4829 39.1483 71.6551C42.7135 71.3296 46.4808 71.1555 50.3543 71.1555C54.2278 71.1555 57.9952 71.3296 61.5606 71.6551C58.7602 80.4829 54.4183 85.8124 50.3543 85.8124ZM50.3543 67.259C46.1148 67.259 41.9851 67.4624 38.0872 67.8444C36.997 63.3074 36.2951 58.0658 36.1652 52.3028H64.5436C64.4137 58.0658 63.7118 63.3074 62.6216 67.8444C58.7236 67.4624 54.5938 67.259 50.3543 67.259ZM50.3543 14.8965C54.4184 14.8965 58.7603 20.2262 61.5607 29.0542C57.9954 29.3796 54.228 29.5537 50.3543 29.5537C46.4807 29.5537 42.7133 29.3796 39.1481 29.0542C41.9485 20.2262 46.2903 14.8965 50.3543 14.8965ZM50.3543 33.4501C54.594 33.4501 58.7238 33.2468 62.6218 32.8648C63.7119 37.4018 64.4138 42.6433 64.5436 48.4063H36.1652C36.2951 42.6433 36.9969 37.4018 38.0871 32.8648C41.9849 33.2468 46.1146 33.4501 50.3543 33.4501ZM32.2687 48.4063H14.9523C15.3317 41.4373 17.7375 35.0023 21.5825 29.6692C25.1446 30.8433 29.4359 31.7675 34.1777 32.4098C33.0667 37.2261 32.3923 42.6324 32.2687 48.4063ZM32.2687 52.3028C32.3924 58.0768 33.0668 63.4832 34.1778 68.2994C29.4361 68.9417 25.1447 69.8658 21.5824 71.0398C17.7374 65.7067 15.3317 59.2718 14.9523 52.3028H32.2687ZM68.4402 52.3028H85.7565C85.3771 59.2718 82.9715 65.7066 79.1264 71.0397C75.5641 69.8658 71.2727 68.9417 66.531 68.2994C67.642 63.4832 68.3165 58.0768 68.4402 52.3028ZM68.4402 48.4063C68.3165 42.6324 67.6421 37.2261 66.5311 32.4098C71.273 31.7675 75.5643 30.8434 79.1263 29.6693C82.9714 35.0024 85.3771 41.4373 85.7565 48.4063H68.4402ZM76.4822 26.4128C73.3111 27.3464 69.5965 28.0874 65.5304 28.6165C63.9708 23.4179 61.8574 19.1125 59.3571 16.0579C66.0349 17.8123 71.9484 21.4691 76.4822 26.4128ZM41.3517 16.0579C38.8515 19.1124 36.7379 23.4178 35.1784 28.6165C31.1123 28.0874 27.3977 27.3463 24.2266 26.4127C28.7604 21.469 34.6739 17.8122 41.3517 16.0579ZM24.2268 74.2967C27.3981 73.363 31.1127 72.622 35.1786 72.0928C36.7382 77.2915 38.8518 81.5969 41.352 84.6514C34.6742 82.8972 28.7606 79.2404 24.2268 74.2967ZM59.3568 84.6514C61.857 81.5968 63.9706 77.2915 65.5302 72.0928C69.5961 72.622 73.3107 73.363 76.482 74.2966C71.9481 79.2402 66.0346 82.8971 59.3568 84.6514Z" fill="#31423F"/>
</svg>
