<svg width="100" height="100" viewBox="0 0 100 100" fill="none" xmlns="http://www.w3.org/2000/svg">
<path d="M24.2597 58.5947H12.9482C11.8723 58.5947 11 59.467 11 60.5429V87.6826C11 88.7585 11.8723 89.6308 12.9482 89.6308H24.2597C25.3356 89.6308 26.208 88.7585 26.208 87.6826V60.5429C26.208 59.467 25.3356 58.5947 24.2597 58.5947ZM22.3115 85.7344H14.8965V62.4912H22.3115V85.7344ZM45.4269 53.4323H34.1154C33.0395 53.4323 32.1672 54.3047 32.1672 55.3806V87.6826C32.1672 88.7585 33.0395 89.6308 34.1154 89.6308H45.4269C46.5031 89.6308 47.3751 88.7585 47.3751 87.6826V55.3806C47.3751 54.3047 46.5031 53.4323 45.4269 53.4323ZM43.4787 85.7344H36.0637V57.3288H43.4787V85.7344ZM66.5944 46.577H55.2823C54.206 46.577 53.334 47.4493 53.334 48.5253V87.6826C53.334 88.7585 54.206 89.6308 55.2823 89.6308H66.5944C67.6706 89.6308 68.5426 88.7585 68.5426 87.6826V48.5253C68.5426 47.4493 67.6706 46.577 66.5944 46.577ZM64.6461 85.7344H57.2305V50.4735H64.6461V85.7344ZM87.7612 34.1151H76.4491C75.3729 34.1151 74.5009 34.9874 74.5009 36.0633V87.6826C74.5009 88.7585 75.3729 89.6308 76.4491 89.6308H87.7612C88.8375 89.6308 89.7095 88.7585 89.7095 87.6826V36.0633C89.7095 34.9874 88.8375 34.1151 87.7612 34.1151ZM85.813 85.7344H78.3974V38.0116H85.813V85.7344ZM89.7095 12.9482V21.8479C89.7095 22.9238 88.8375 23.7961 87.7612 23.7961C86.685 23.7961 85.813 22.9238 85.813 21.8479V18.3535C66.0744 37.6557 40.4695 50.337 13.2225 54.2064C13.1296 54.2194 13.0373 54.226 12.946 54.226C11.9916 54.226 11.1579 53.5237 11.0197 52.5514C10.8684 51.486 11.6095 50.4998 12.6746 50.3486C39.4186 46.5508 64.5335 33.9998 83.7724 14.8965H78.8616C77.7854 14.8965 76.9134 14.0242 76.9134 12.9482C76.9134 11.8723 77.7854 11 78.8616 11H87.7612C88.8375 11 89.7095 11.8723 89.7095 12.9482Z" fill="#1053F3"/>
</svg>
