<svg width="100" height="100" viewBox="0 0 100 100" fill="none" xmlns="http://www.w3.org/2000/svg">
<path d="M95 23.506C95.0005 22.1949 94.5307 20.9272 93.676 19.933L93.665 19.917C93.659 19.91 93.652 19.906 93.647 19.9C93.1306 19.3035 92.4919 18.8252 91.7743 18.4973C91.0567 18.1695 90.2769 17.9999 89.488 18H10.512C9.72224 17.9999 8.94172 18.17 8.22354 18.4985C7.50536 18.8271 6.86636 19.3064 6.35 19.904L6.336 19.917L6.327 19.929C5.4708 20.9241 4.99996 22.1933 5 23.506V76.284C4.99962 77.5876 5.4637 78.8486 6.309 79.841L6.315 79.849L6.323 79.857C6.83914 80.4642 7.48107 80.9521 8.20437 81.2867C8.92767 81.6213 9.71505 81.7948 10.512 81.795H89.488C90.285 81.7946 91.0725 81.621 91.7958 81.2862C92.5191 80.9514 93.161 80.4634 93.677 79.856L93.685 79.849L93.691 79.841C94.5363 78.8486 95.0004 77.5876 95 76.284V23.506ZM9.19 25.265L36.811 49.873L9.19 74.482V25.265ZM50 56.012L12.031 22.185H87.969L50 56.012ZM39.961 52.68L48.606 60.38C48.9903 60.7211 49.4862 60.9094 50 60.9094C50.5138 60.9094 51.0097 60.7211 51.394 60.38L60.04 52.68L88.017 77.605H11.983L39.961 52.68ZM63.189 49.874L90.81 25.266V74.482L63.189 49.874Z" fill="#31423F"/>
</svg>
