<svg width="100" height="100" viewBox="0 0 100 100" fill="none" xmlns="http://www.w3.org/2000/svg">
<path d="M83.011 27.1147L53.326 9.97575C51.073 8.67475 48.488 8.67475 46.232 9.97575L16.547 27.1147C14.293 28.4157 13 30.6547 13 33.2577V67.5348C13 70.1378 14.292 72.3767 16.547 73.6777L46.232 90.8167C47.359 91.4677 48.569 91.7928 49.779 91.7928C50.989 91.7928 52.199 91.4677 53.326 90.8167L83.011 73.6777C85.265 72.3757 86.558 70.1368 86.558 67.5348V33.2577C86.558 30.6557 85.265 28.4167 83.011 27.1147ZM48.318 13.5897C48.789 13.3177 49.284 13.1817 49.779 13.1817C50.273 13.1817 50.769 13.3177 51.239 13.5897L80.298 30.3667L49.779 47.9878L19.26 30.3667L48.318 13.5897ZM18.634 70.0648C17.692 69.5208 17.174 68.6228 17.174 67.5358V33.9807L47.693 51.6007V86.8418L18.634 70.0648ZM80.924 70.0648L51.865 86.8418V51.6007L82.384 33.9807V67.5348C82.385 68.6228 81.866 69.5208 80.924 70.0648Z" fill="#31423F"/>
</svg>
