<svg width="100" height="100" viewBox="0 0 100 100" fill="none" xmlns="http://www.w3.org/2000/svg">
<path d="M90.5214 40.554C90.0684 39.161 88.7794 38.215 87.3144 38.201L61.3444 37.943L53.0754 13.323C52.6084 11.933 51.3104 11 49.8444 11C48.3784 11 47.0804 11.934 46.6144 13.323L38.3444 37.943L12.3744 38.2C10.9094 38.214 9.62041 39.16 9.16741 40.554C8.71441 41.948 9.20141 43.472 10.3784 44.344L31.2374 59.817L23.4564 84.596C23.0174 85.994 23.5194 87.512 24.7044 88.373C25.3024 88.808 26.0054 89.025 26.7084 89.025C27.4004 89.025 28.0924 88.815 28.6844 88.393L49.8444 73.336L71.0054 88.393C72.1994 89.243 73.7994 89.235 74.9844 88.374C76.1704 87.512 76.6714 85.994 76.2324 84.596L68.4514 59.818L89.3114 44.345C90.4874 43.472 90.9744 41.949 90.5214 40.554ZM64.9244 57.398C64.8094 57.479 64.7034 57.572 64.6094 57.673C64.4064 57.891 64.2584 58.147 64.1694 58.42C64.0784 58.698 64.0464 58.998 64.0834 59.3C64.1004 59.435 64.1304 59.57 64.1754 59.701L71.8064 84L51.0554 69.235C50.9414 69.15 50.8204 69.078 50.6934 69.019C50.4224 68.893 50.1334 68.832 49.8464 68.832H49.8434C49.5544 68.832 49.2624 68.894 48.9904 69.021C48.8654 69.079 48.7464 69.15 48.6344 69.233L27.8824 84L35.5134 59.701C35.5574 59.57 35.5884 59.436 35.6054 59.3C35.6434 58.998 35.6114 58.698 35.5194 58.42C35.4304 58.147 35.2824 57.891 35.0794 57.673C34.9854 57.571 34.8794 57.479 34.7644 57.398L14.3084 42.226L38.8374 41.983C40.3104 41.969 41.5654 41.057 42.0334 39.66L49.8444 16.407L57.6544 39.66C58.1234 41.057 59.3784 41.968 60.8514 41.983L85.3804 42.226L64.9244 57.398Z" fill="#31423F"/>
</svg>
